<?xml version="1.0" standalone="no"?>
<!DOCTYPE svg PUBLIC "-//W3C//DTD SVG 20010904//EN"
 "http://www.w3.org/TR/2001/REC-SVG-20010904/DTD/svg10.dtd">
<svg version="1.0" xmlns="http://www.w3.org/2000/svg"
 width="131.000000pt" height="133.000000pt" viewBox="0 0 131.000000 133.000000"
 preserveAspectRatio="xMidYMid meet">

<g transform="translate(0.000000,133.000000) scale(0.100000,-0.100000)"
fill="#000000" stroke="none">
<path d="M623 1076 c-25 -21 -31 -22 -48 -10 -31 23 -89 17 -123 -11 -26 -22
-37 -24 -71 -19 -71 11 -123 -2 -148 -39 -13 -18 -23 -48 -23 -65 0 -25 -6
-35 -25 -42 -64 -24 -87 -98 -44 -141 18 -18 19 -25 10 -46 -16 -35 -14 -57
10 -87 l20 -26 -21 -30 c-16 -23 -29 -30 -54 -30 -41 0 -60 -21 -52 -55 6 -24
10 -26 54 -23 46 3 47 4 48 35 1 67 82 127 99 74 8 -25 81 -61 123 -61 32 0
32 -1 32 -49 0 -28 -4 -53 -10 -56 -17 -11 -11 -54 9 -65 45 -24 131 -1 131
35 0 21 -41 45 -77 45 -32 0 -33 1 -33 45 0 35 4 47 21 56 18 9 24 8 31 -6 13
-23 69 -45 113 -45 47 0 90 23 112 60 18 30 29 35 57 24 18 -7 23 -98 6 -109
-23 -14 -10 -46 26 -61 31 -13 42 -13 78 -2 75 24 57 78 -25 78 l-49 0 0 43
c0 42 1 44 40 56 41 12 80 57 80 92 0 8 18 23 41 33 45 20 79 66 79 107 0 35
60 89 98 89 33 0 52 16 52 45 0 27 -18 45 -46 45 -32 0 -57 -28 -50 -56 5 -17
-1 -28 -25 -45 -26 -18 -33 -19 -40 -8 -10 17 -11 24 -9 70 1 39 -35 93 -71
104 -11 4 -24 18 -29 31 -16 42 -95 58 -138 29 -19 -14 -24 -14 -51 0 -42 21
-75 19 -108 -9z m192 -121 c43 -42 31 -111 -25 -140 -40 -21 -75 -10 -100 30
-25 41 -25 59 1 101 18 29 26 34 60 34 29 0 47 -7 64 -25z m-286 -30 c78 -40
51 -165 -36 -165 -91 0 -115 136 -29 170 29 12 33 12 65 -5z"/>
<path d="M732 948 c-7 -7 -12 -27 -12 -45 0 -58 73 -73 98 -20 12 24 11 31 -2
53 -18 26 -63 33 -84 12z"/>
<path d="M472 898 c-16 -16 -15 -60 1 -83 18 -24 64 -13 79 20 22 48 -43 100
-80 63z"/>
</g>
</svg>
